<?xml version="1.0" encoding="UTF-8"?>
<!-- Generated by Pixelmator Pro 3.7.1 -->
<svg width="611" height="822" viewBox="0 0 611 822" xmlns="http://www.w3.org/2000/svg">
    <g id="Book">
        <path id="Book-Back" fill="#0e5a21" fill-rule="evenodd" stroke="none" d="M 97.450485 753.796936 C 104.362198 797.435791 145.341507 827.208984 188.980301 820.297241 L 536.646606 765.2323 C 580.2854 758.320618 610.058655 717.341309 603.146912 673.702515 L 508.191193 74.175659 C 501.27948 30.536865 460.30014 0.763672 416.661377 7.675354 L 68.995071 62.740295 C 25.356266 69.651978 -4.416949 110.631287 2.494763 154.270142 Z"/>
        <path id="Pages" fill="#efe4c4" fill-rule="evenodd" stroke="none" d="M 115.765221 737.263977 C 122.578568 780.281738 162.649551 809.682678 205.266266 802.932861 L 544.789612 749.157654 C 587.406311 742.407837 616.430725 702.063232 609.617371 659.045471 L 516.013062 68.051147 C 509.199738 25.033386 469.128723 -4.367554 426.512024 2.382263 L 86.988663 56.157471 C 44.371952 62.907288 15.347567 103.251892 22.160912 146.269653 Z"/>
        <path id="spine" fill="#0e5a21" fill-rule="evenodd" stroke="none" d="M 148.819855 813.513489 C 148.6315 813.701843 145.492157 812.280029 141.843536 810.353943 C 138.194885 808.427856 132.311829 804.46167 128.770081 801.540283 C 125.228302 798.618896 119.986084 793.139648 117.120728 789.364319 C 114.255341 785.588928 109.920349 778.450012 107.487427 773.5 C 105.054504 768.549988 102.586945 762.25 102.003937 759.5 C 101.420929 756.75 96.235168 724.911926 90.47998 688.748718 C 84.724823 652.58551 75.055603 592.174072 68.992828 554.501099 C 62.930054 516.828125 53.456589 457.54126 47.940674 422.752411 C 42.424759 387.963593 34.301056 336.099976 29.887985 307.5 C 25.474915 278.900024 19.404144 238.625 16.397369 218 C 13.39061 197.375 9.767685 171.528809 8.34642 160.564087 C 6.113663 143.338623 5.477524 140.397522 3.667618 138.931946 C 1.625229 137.278076 1.602936 136.939514 2.775131 125.367859 C 3.43634 118.840576 5.115982 109.273071 6.507675 104.10675 C 7.899384 98.940491 10.795532 90.963135 12.943588 86.379333 C 15.091644 81.795471 19.172714 74.683899 22.01265 70.575806 C 24.852585 66.467712 30.865768 59.564331 35.37529 55.235046 C 39.884827 50.905701 46.427505 45.426025 49.914612 43.057983 C 53.401703 40.689941 60.503922 36.739624 65.697311 34.27948 C 70.890717 31.819336 75.294342 29.962524 75.483154 30.153259 C 75.671967 30.343994 75.440704 32.525024 74.969223 35 C 74.497742 37.474976 73.824799 41.318542 73.47377 43.541199 C 72.835541 47.582336 72.835541 47.582336 80.167786 48.837036 C 84.2005 49.527161 91.325012 51.546204 96 53.323853 C 100.674988 55.101501 107.875 58.73468 112 61.397583 C 116.125 64.060486 123.34314 70.122925 128.040283 74.869629 C 132.737457 79.616333 139.588287 88.025269 143.264374 93.556152 C 146.94046 99.087036 152.854462 109.662048 156.406616 117.056152 C 159.958771 124.450256 165.08548 137.025024 167.799255 145 C 170.513062 152.974976 174.345184 165.799988 176.315125 173.5 C 178.285065 181.200012 181.261871 194.700012 182.930237 203.5 C 184.598633 212.299988 187.074524 227.825012 188.432251 238 C 189.789978 248.174988 191.580627 264.150024 192.411469 273.5 C 193.24231 282.849976 194.369629 299.724976 194.916626 311 C 195.463593 322.275024 196.170074 341.849976 196.486511 354.5 C 196.802979 367.150024 196.600586 393.475006 196.036713 413 C 195.47287 432.524994 194.316193 459.975006 193.466339 474 C 192.616486 488.024994 191.021759 509.850006 189.922516 522.5 C 188.823273 535.150024 187.02301 554.049988 185.921936 564.5 C 184.820892 574.950012 182.801605 592.275024 181.434631 603 C 180.067688 613.724976 177.355835 632.849976 175.408295 645.5 C 173.460754 658.150024 170.550964 675.682373 168.942108 684.460876 C 167.333282 693.239319 164.601685 706.964355 162.871948 714.960876 C 161.142212 722.957397 158.203857 734.900024 156.342285 741.5 C 154.480713 748.099976 170.618958 763.700012 169 767 C 167.108398 770.855713 149.873871 766.207764 144 777 C 140.328094 783.74646 142.430725 792.77417 144 796 C 145.317474 798.708252 142.330383 804.783264 144.754608 807.759583 C 147.178864 810.73584 149.008209 813.325134 148.819855 813.513489 Z"/>
    </g>
</svg>
