<?xml version="1.0" encoding="UTF-8"?>
<!-- Generated by Pixelmator Pro 3.7.1 -->
<svg width="617" height="844" viewBox="0 0 617 844" xmlns="http://www.w3.org/2000/svg">
    <g id="Book">
        <path id="Book-Back" fill="#0e5a21" fill-rule="evenodd" stroke="none" d="M 97.450485 775.796936 C 104.362198 819.435791 145.341507 849.208984 188.980301 842.297241 L 536.646606 787.2323 C 580.2854 780.320618 610.058655 739.341309 603.146912 695.702515 L 508.191193 96.175659 C 501.27948 52.536865 460.30014 22.763672 416.661377 29.675354 L 68.995071 84.740295 C 25.356266 91.651978 -4.416949 132.631287 2.494763 176.270142 Z"/>
        <path id="Pages" fill="#efe4c4" fill-rule="evenodd" stroke="none" d="M 110.765221 764.263977 C 117.578568 807.281738 157.649551 836.682678 200.266266 829.932861 L 539.789612 776.157654 C 582.406311 769.407837 611.430725 729.063232 604.617371 686.045471 L 511.013092 95.051147 C 504.199738 52.033386 464.128723 22.632446 421.512024 29.382263 L 81.988663 83.157471 C 39.371952 89.907288 10.347567 130.251892 17.160912 173.269653 Z"/>
        <path id="Path" fill="#0e5a21" fill-rule="evenodd" stroke="none" d="M 2 151 C 3.943054 120.315002 33 84 33 84 C 33 84 179.091675 795.910217 145 800 C 121.425018 802.828125 147 835 147 835 C 147 835 114.457153 826.400879 99 782 C 93.119385 739.970825 4.867813 206.986145 2 151 Z"/>
        <path id="Book-Front" fill="#228b3d" fill-rule="evenodd" stroke="none" d="M 109.450485 748.796936 C 116.362198 792.435791 157.341507 822.208984 200.980301 815.297241 L 548.646606 760.2323 C 592.2854 753.320618 622.058655 712.341309 615.146912 668.702515 L 520.191223 69.175659 C 513.27948 25.536865 472.30014 -4.236328 428.661377 2.675354 L 80.995071 57.740295 C 37.356266 64.651978 7.583051 105.631287 14.494763 149.270142 Z"/>
    </g>
</svg>
